<mxfile host="Electron" modified="2024-02-29T02:57:59.361Z" agent="Mozilla/5.0 (Windows NT 10.0; Win64; x64) AppleWebKit/537.36 (KHTML, like Gecko) draw.io/23.1.5 Chrome/120.0.6099.109 Electron/28.1.0 Safari/537.36" etag="T_sBr3VoES9lxA4fYUw7" version="23.1.5" type="device">
  <diagram name="第 1 页" id="-S2tFFtkINJocTdcbrvZ">
    <mxGraphModel dx="902" dy="628" grid="1" gridSize="10" guides="1" tooltips="1" connect="1" arrows="1" fold="1" page="1" pageScale="1" pageWidth="827" pageHeight="1169" math="0" shadow="0">
      <root>
        <mxCell id="0" />
        <mxCell id="1" parent="0" />
        <mxCell id="RD_Kn3eTQgftrucP7Ojp-15" value="" style="rounded=0;whiteSpace=wrap;html=1;" parent="1" vertex="1">
          <mxGeometry x="90" y="340" width="60" height="460" as="geometry" />
        </mxCell>
        <mxCell id="RD_Kn3eTQgftrucP7Ojp-29" value="" style="edgeStyle=orthogonalEdgeStyle;rounded=0;orthogonalLoop=1;jettySize=auto;html=1;startArrow=classic;startFill=1;" parent="1" source="RD_Kn3eTQgftrucP7Ojp-16" edge="1">
          <mxGeometry relative="1" as="geometry">
            <mxPoint x="190" y="370" as="targetPoint" />
          </mxGeometry>
        </mxCell>
        <mxCell id="RD_Kn3eTQgftrucP7Ojp-16" value="1Page" style="rounded=0;whiteSpace=wrap;html=1;fillColor=#f5f5f5;fontColor=#333333;strokeColor=#666666;" parent="1" vertex="1">
          <mxGeometry x="90" y="340" width="60" height="60" as="geometry" />
        </mxCell>
        <mxCell id="RD_Kn3eTQgftrucP7Ojp-18" value="2Page" style="rounded=0;whiteSpace=wrap;html=1;" parent="1" vertex="1">
          <mxGeometry x="90" y="400" width="60" height="60" as="geometry" />
        </mxCell>
        <mxCell id="RD_Kn3eTQgftrucP7Ojp-19" value="" style="rounded=0;whiteSpace=wrap;html=1;fillColor=#f5f5f5;fontColor=#333333;strokeColor=#666666;" parent="1" vertex="1">
          <mxGeometry x="90" y="580" width="60" height="60" as="geometry" />
        </mxCell>
        <mxCell id="RD_Kn3eTQgftrucP7Ojp-20" value="...." style="rounded=0;whiteSpace=wrap;html=1;fillColor=#f5f5f5;fontColor=#333333;strokeColor=#666666;" parent="1" vertex="1">
          <mxGeometry x="90" y="690" width="60" height="60" as="geometry" />
        </mxCell>
        <mxCell id="RD_Kn3eTQgftrucP7Ojp-22" value="3Page" style="rounded=0;whiteSpace=wrap;html=1;fillColor=#f5f5f5;fontColor=#333333;strokeColor=#666666;" parent="1" vertex="1">
          <mxGeometry x="90" y="460" width="60" height="60" as="geometry" />
        </mxCell>
        <mxCell id="RD_Kn3eTQgftrucP7Ojp-24" value="" style="rounded=0;whiteSpace=wrap;html=1;" parent="1" vertex="1">
          <mxGeometry x="90" y="640" width="60" height="60" as="geometry" />
        </mxCell>
        <mxCell id="RD_Kn3eTQgftrucP7Ojp-37" value="PageCache" style="text;html=1;align=center;verticalAlign=middle;resizable=0;points=[];autosize=1;strokeColor=none;fillColor=none;fontStyle=1" parent="1" vertex="1">
          <mxGeometry x="75" y="310" width="90" height="30" as="geometry" />
        </mxCell>
        <mxCell id="xHLDsi6XgkeTIfmw93Kk-3" value="" style="edgeStyle=orthogonalEdgeStyle;rounded=0;orthogonalLoop=1;jettySize=auto;html=1;startArrow=classic;startFill=1;" parent="1" source="xHLDsi6XgkeTIfmw93Kk-1" target="xHLDsi6XgkeTIfmw93Kk-2" edge="1">
          <mxGeometry relative="1" as="geometry" />
        </mxCell>
        <mxCell id="xHLDsi6XgkeTIfmw93Kk-1" value="Span" style="rounded=0;whiteSpace=wrap;html=1;fillColor=#f5f5f5;fontColor=#333333;strokeColor=#666666;" parent="1" vertex="1">
          <mxGeometry x="190" y="340" width="60" height="60" as="geometry" />
        </mxCell>
        <mxCell id="xHLDsi6XgkeTIfmw93Kk-5" value="" style="edgeStyle=orthogonalEdgeStyle;rounded=0;orthogonalLoop=1;jettySize=auto;html=1;entryX=0;entryY=0.5;entryDx=0;entryDy=0;" parent="1" source="xHLDsi6XgkeTIfmw93Kk-2" target="RD_Kn3eTQgftrucP7Ojp-16" edge="1">
          <mxGeometry relative="1" as="geometry">
            <mxPoint x="60" y="370" as="targetPoint" />
            <Array as="points">
              <mxPoint x="420" y="370" />
              <mxPoint x="420" y="300" />
              <mxPoint x="60" y="300" />
              <mxPoint x="60" y="370" />
            </Array>
          </mxGeometry>
        </mxCell>
        <mxCell id="xHLDsi6XgkeTIfmw93Kk-2" value="Span" style="rounded=0;whiteSpace=wrap;html=1;fillColor=#f5f5f5;fontColor=#333333;strokeColor=#666666;" parent="1" vertex="1">
          <mxGeometry x="284" y="340" width="60" height="60" as="geometry" />
        </mxCell>
        <mxCell id="xHLDsi6XgkeTIfmw93Kk-14" value="SpanList本身是带头双向循环链表" style="text;html=1;align=center;verticalAlign=middle;resizable=0;points=[];autosize=1;strokeColor=none;fillColor=none;" parent="1" vertex="1">
          <mxGeometry x="180" y="310" width="200" height="30" as="geometry" />
        </mxCell>
        <mxCell id="aosu79E6RQoY6kdGLen8-1" value="128Page" style="rounded=0;whiteSpace=wrap;html=1;" vertex="1" parent="1">
          <mxGeometry x="90" y="750" width="60" height="60" as="geometry" />
        </mxCell>
        <mxCell id="aosu79E6RQoY6kdGLen8-2" value="此时Span中List被切成多大的小块内存是CentralCache决定的&lt;br&gt;CentralCache申请内存时会计算需要的Page的数量，最少为1页" style="text;html=1;align=center;verticalAlign=middle;resizable=0;points=[];autosize=1;strokeColor=none;fillColor=none;" vertex="1" parent="1">
          <mxGeometry x="164" y="420" width="360" height="40" as="geometry" />
        </mxCell>
        <mxCell id="aosu79E6RQoY6kdGLen8-4" value="Unordered Map" style="swimlane;fontStyle=0;childLayout=stackLayout;horizontal=1;startSize=30;horizontalStack=0;resizeParent=1;resizeParentMax=0;resizeLast=0;collapsible=1;marginBottom=0;whiteSpace=wrap;html=1;" vertex="1" parent="1">
          <mxGeometry x="330" y="570" width="140" height="120" as="geometry">
            <mxRectangle x="330" y="570" width="120" height="30" as="alternateBounds" />
          </mxGeometry>
        </mxCell>
        <mxCell id="aosu79E6RQoY6kdGLen8-5" value="1000 - &amp;amp;Span1" style="text;strokeColor=none;fillColor=none;align=left;verticalAlign=middle;spacingLeft=4;spacingRight=4;overflow=hidden;points=[[0,0.5],[1,0.5]];portConstraint=eastwest;rotatable=0;whiteSpace=wrap;html=1;" vertex="1" parent="aosu79E6RQoY6kdGLen8-4">
          <mxGeometry y="30" width="140" height="30" as="geometry" />
        </mxCell>
        <mxCell id="aosu79E6RQoY6kdGLen8-6" value="1001 - &amp;amp;Span1" style="text;strokeColor=none;fillColor=none;align=left;verticalAlign=middle;spacingLeft=4;spacingRight=4;overflow=hidden;points=[[0,0.5],[1,0.5]];portConstraint=eastwest;rotatable=0;whiteSpace=wrap;html=1;" vertex="1" parent="aosu79E6RQoY6kdGLen8-4">
          <mxGeometry y="60" width="140" height="30" as="geometry" />
        </mxCell>
        <mxCell id="aosu79E6RQoY6kdGLen8-7" value="1002 - &amp;amp;Span2" style="text;strokeColor=none;fillColor=none;align=left;verticalAlign=middle;spacingLeft=4;spacingRight=4;overflow=hidden;points=[[0,0.5],[1,0.5]];portConstraint=eastwest;rotatable=0;whiteSpace=wrap;html=1;" vertex="1" parent="aosu79E6RQoY6kdGLen8-4">
          <mxGeometry y="90" width="140" height="30" as="geometry" />
        </mxCell>
        <mxCell id="aosu79E6RQoY6kdGLen8-9" value="还会有一个哈希表来存放&lt;br&gt;页号和Span对象地址的映射关系" style="text;html=1;align=center;verticalAlign=middle;resizable=0;points=[];autosize=1;strokeColor=none;fillColor=none;" vertex="1" parent="1">
          <mxGeometry x="300" y="530" width="200" height="40" as="geometry" />
        </mxCell>
      </root>
    </mxGraphModel>
  </diagram>
</mxfile>
